<svg xmlns="http://www.w3.org/2000/svg" xmlns:xlink="http://www.w3.org/1999/xlink" width="250" zoomAndPan="magnify" viewBox="0 0 768 767.999994" height="250" preserveAspectRatio="xMidYMid meet" version="1.0">
<defs>

<g/>
<clipPath id="86a19032d7"><path d="M 83.496094 32.714844 L 683.179688 32.714844 L 683.179688 730.523438 L 83.496094 730.523438 Z M 83.496094 32.714844 " clip-rule="nonzero" /></clipPath><clipPath id="06337a6b7d"><path d="M 383.339844 32.714844 L 683.179688 207.164062 L 683.179688 556.070312 L 383.339844 730.523438 L 83.496094 556.070312 L 83.496094 207.164062 L 383.339844 32.714844 " clip-rule="nonzero"/></clipPath><clipPath id="07a70ba16d"><path d="M 76.796875 88 L 373 88 L 373 727 L 76.796875 727 Z M 76.796875 88 " clip-rule="nonzero"/></clipPath></defs><g clip-path="url(#86a19032d7)"><g clip-path="url(#06337a6b7d)"><path fill="#fffbf5" d="M 83.496094 32.714844 L 683.179688 32.714844 L 683.179688 730.523438 L 83.496094 730.523438 Z M 83.496094 32.714844 " fill-opacity="1" fill-rule="nonzero"/></g></g><path fill="#38429d" d="M 298.953125 78.425781 C 300.546875 77 301.988281 75.324219 303.773438 74.1875 C 309.628906 70.472656 315.644531 67.015625 321.527344 63.34375 C 340.171875 51.695312 358.867188 40.132812 377.347656 28.234375 C 382.542969 24.886719 386.992188 24.949219 392.132812 28.015625 C 416.972656 42.835938 441.964844 57.40625 466.796875 72.242188 C 508.519531 97.175781 550.074219 122.390625 591.867188 147.203125 C 622.511719 165.398438 653.398438 183.179688 684.25 201.011719 C 687.855469 203.097656 689.8125 205.675781 689.78125 209.824219 C 689.6875 222.101562 689.6875 234.371094 689.527344 246.644531 C 689.4375 253.59375 688.980469 260.539062 688.898438 267.488281 C 688.386719 310.359375 687.722656 353.230469 687.570312 396.101562 C 687.496094 415.785156 688.824219 435.476562 688.886719 455.160156 C 688.976562 484.128906 688.511719 513.101562 688.28125 542.070312 C 688.273438 542.996094 688.078125 543.980469 688.308594 544.84375 C 690.152344 551.617188 687.082031 555.277344 681.226562 558.472656 C 671.90625 563.5625 663.015625 569.480469 654.082031 575.269531 C 651.410156 577.003906 649.046875 579.324219 646.820312 581.644531 C 630.808594 598.328125 630.699219 598.316406 625.222656 620.679688 C 622.621094 631.3125 619.722656 641.738281 613.726562 651.050781 C 606.210938 662.734375 597.230469 672.839844 584.324219 678.75 C 581.203125 680.179688 578.035156 681.75 574.0625 680.050781 C 574.0625 678.972656 573.683594 677.703125 574.117188 676.847656 C 582.601562 660.144531 590.789062 643.261719 599.898438 626.902344 C 604.972656 617.78125 612.796875 610.664062 620.679688 603.742188 C 626.355469 598.757812 631.40625 593.066406 636.738281 587.6875 C 636.46875 587.316406 636.199219 586.9375 635.925781 586.5625 C 634.734375 586.957031 633.441406 587.164062 632.371094 587.777344 C 614.113281 598.242188 595.648438 608.375 577.753906 619.425781 C 568.429688 625.179688 562.699219 634.28125 561.234375 645.453125 C 559.40625 659.414062 556.101562 672.738281 547.148438 684.109375 C 540.808594 692.160156 533.078125 698.164062 523.242188 701.160156 C 521.019531 701.839844 518.523438 701.628906 514.78125 701.945312 C 516.3125 698.585938 517.117188 696.503906 518.175781 694.5625 C 524.285156 683.386719 530.347656 672.179688 536.644531 661.109375 C 541.929688 651.816406 547.667969 642.902344 557.097656 637.011719 C 559.292969 635.640625 560.621094 632.890625 561.734375 629.847656 C 560.636719 630.203125 559.398438 630.332031 558.46875 630.9375 C 541.78125 641.773438 524.878906 652.3125 508.582031 663.714844 C 500.921875 669.070312 495.738281 676.621094 496.542969 687.046875 C 497.914062 704.863281 489.007812 718.210938 476.621094 729.484375 C 471.558594 734.09375 465.300781 737.398438 459.484375 741.140625 C 458.246094 741.941406 456.582031 742.082031 454.320312 742.765625 C 454.613281 740.785156 454.578125 739.46875 455.019531 738.335938 C 458.382812 729.71875 461.496094 720.976562 465.378906 712.59375 C 468.855469 705.066406 472.664062 697.570312 477.371094 690.78125 C 480.285156 686.578125 484.828125 683.242188 489.226562 680.433594 C 492.402344 678.410156 494.15625 675.984375 494.78125 671.773438 C 491.675781 673.539062 488.5625 675.289062 485.46875 677.074219 C 476.660156 682.148438 467.90625 687.335938 459.015625 692.269531 C 455.691406 694.109375 453.097656 696.242188 451.144531 699.671875 C 444.160156 711.914062 433.300781 719.644531 420.21875 724.070312 C 409.289062 727.769531 398.097656 730.691406 386.984375 733.859375 C 385.792969 734.203125 384.421875 733.910156 381.828125 733.910156 C 383.445312 730.574219 384.386719 728.066406 385.777344 725.832031 C 396.507812 708.589844 412.273438 698.394531 431.667969 693.515625 C 435.449219 692.5625 439.464844 691.71875 443.292969 691.984375 C 449.640625 692.425781 454.894531 690.441406 460.164062 687.222656 C 468.441406 682.167969 476.984375 677.554688 485.195312 671.519531 C 483.828125 671.378906 482.457031 671.101562 481.09375 671.117188 C 474.625 671.191406 468.148438 671.253906 461.683594 671.542969 C 459.976562 671.617188 458.269531 672.394531 456.625 673.023438 C 455.5625 673.429688 454.675781 674.289062 453.613281 674.703125 C 448.691406 676.636719 443.296875 674.65625 441.152344 670.207031 C 439.144531 666.035156 440.867188 661.03125 445.023438 658.96875 C 449.988281 656.5 455.722656 658.015625 458.347656 662.589844 C 459.023438 663.765625 459.355469 665.140625 459.984375 666.777344 C 465.789062 666.777344 471.578125 667.375 477.199219 666.65625 C 490.546875 664.957031 503.539062 662.117188 514.761719 653.714844 C 521.410156 648.734375 528.757812 644.6875 535.757812 640.175781 C 537.035156 639.351562 538.175781 638.3125 540.1875 636.742188 C 531.972656 637.675781 524.859375 638.371094 517.785156 639.363281 C 516.054688 639.609375 514.421875 640.742188 512.835938 641.628906 C 491.914062 653.292969 471.59375 650.382812 451.4375 636.953125 C 449.714844 635.804688 448.699219 633.601562 446.769531 631.148438 C 450.121094 630.53125 452.34375 630.066406 454.582031 629.71875 C 460.511719 628.796875 466.453125 627.933594 472.390625 627.039062 C 481.875 625.605469 491.328125 625.519531 500.628906 628.085938 C 503.714844 628.941406 507.261719 629.796875 509.449219 631.875 C 513.914062 636.121094 518.699219 636.390625 524.113281 635.128906 C 525.402344 634.828125 526.734375 634.75 528.414062 633.328125 C 526.421875 632.570312 524.496094 631.492188 522.441406 631.109375 C 509.613281 628.734375 499.808594 622.375 493.609375 610.554688 C 490.828125 605.246094 487.242188 600.363281 484.078125 595.246094 C 483.007812 593.519531 482.117188 591.679688 481.304688 590.179688 C 482.8125 587.167969 484.988281 587.40625 486.957031 588.15625 C 504.265625 594.742188 518.472656 604.949219 525.050781 623.085938 C 526.621094 627.425781 529.0625 629.472656 533.058594 630.644531 C 538.546875 632.253906 544.121094 632.734375 549.375 630.320312 C 561.523438 624.753906 572.492188 617.207031 584.496094 609.292969 C 576.878906 608.640625 570.566406 608.03125 564.246094 607.644531 C 563.28125 607.585938 562.203125 608.496094 561.269531 609.101562 C 553.738281 614 545.183594 613.660156 538.113281 608.292969 C 536.140625 606.792969 533.808594 605.773438 531.792969 604.320312 C 529 602.304688 526.042969 600.375 523.699219 597.898438 C 519.894531 593.878906 519.175781 588.542969 521.496094 584.425781 C 524.195312 579.632812 528.78125 578.34375 533.875 578.203125 C 534.550781 578.1875 535.28125 578.316406 535.910156 578.570312 C 543.351562 581.554688 550.878906 584.351562 558.171875 587.664062 C 563.191406 589.945312 565.8125 594.222656 565.765625 599.921875 C 565.753906 601.039062 565.894531 602.160156 566.015625 603.980469 C 575.757812 604.953125 584.953125 603.390625 594.066406 600.628906 C 609.71875 595.894531 623.425781 587.121094 637.789062 579.710938 C 641.1875 577.953125 644.378906 575.796875 647.449219 573.417969 C 641.992188 573.460938 637.203125 574.566406 632.457031 577.605469 C 617.820312 586.964844 601.785156 586.832031 585.5625 582.792969 C 577.710938 580.839844 570.03125 578.214844 562.210938 576.125 C 558.515625 575.132812 554.675781 574.679688 550.953125 573.992188 C 550.730469 570.269531 553.359375 569.734375 555.222656 568.679688 C 563.847656 563.824219 573.355469 561.742188 582.992188 560.375 C 597.824219 558.273438 612.539062 558.738281 626.867188 563.699219 C 628.394531 564.226562 630.113281 564.578125 631.351562 565.523438 C 637.199219 569.996094 643.566406 568.671875 649.902344 567.398438 C 661.445312 565.078125 671.609375 559.746094 681.207031 553.042969 C 683.929688 551.144531 683.496094 548.773438 683.476562 546.308594 C 683.378906 531.476562 683.167969 516.640625 683.132812 501.8125 C 683.097656 488.136719 683.398438 474.460938 683.261719 460.789062 C 683.109375 445.964844 682.476562 431.144531 682.304688 416.316406 C 682.117188 400.328125 682.070312 384.335938 682.210938 368.347656 C 682.527344 333.125 682.910156 297.902344 683.441406 262.683594 C 683.671875 247.863281 684.148438 233.039062 684.878906 218.238281 C 685.160156 212.457031 683.207031 209.300781 677.992188 206.316406 C 659.703125 195.871094 641.964844 184.476562 623.816406 173.800781 C 600.484375 160.074219 576.859375 146.859375 553.539062 133.117188 C 533.609375 121.382812 513.921875 109.230469 494.144531 97.230469 C 479.515625 88.347656 464.890625 79.441406 450.308594 70.480469 C 430.203125 58.128906 410.070312 45.820312 390.105469 33.238281 C 386.433594 30.921875 383.851562 30.941406 380.210938 33.277344 C 362.496094 44.652344 344.65625 55.84375 326.710938 66.839844 C 319.816406 71.066406 312.542969 74.679688 305.363281 78.417969 C 303.699219 79.28125 301.707031 79.511719 299.859375 80.03125 C 299.558594 79.503906 299.253906 78.964844 298.953125 78.425781 Z M 579.476562 676.3125 C 606.070312 663.296875 617.332031 641.476562 621.582031 614.820312 C 617.675781 620.640625 614.246094 626.761719 610.890625 632.921875 C 607.5 639.125 604.554688 645.617188 599.238281 650.570312 C 602.921875 637.855469 610.058594 626.761719 615.410156 614.859375 C 606.136719 623.914062 599.179688 634.453125 593.78125 646.070312 C 589.300781 655.6875 584.707031 665.253906 579.476562 676.3125 Z M 562.515625 571.792969 C 570.949219 574.164062 579.339844 576.730469 587.839844 578.851562 C 598.035156 581.398438 608.359375 582.097656 618.675781 579.382812 C 620.019531 579.023438 621.21875 578.09375 622.484375 577.429688 C 611.464844 576.824219 600.800781 576.425781 590.503906 572.691406 C 603.460938 572.457031 616.347656 572.488281 629.011719 569.53125 C 606.640625 560.996094 584.550781 563.007812 562.515625 571.792969 Z M 445.707031 696.035156 C 426.253906 694.824219 398.441406 711.457031 389.191406 728.476562 C 395.847656 726.8125 402.511719 725.167969 409.164062 723.464844 C 417.5 721.335938 425.355469 718.039062 432.671875 713.492188 C 436.746094 710.960938 440.324219 707.925781 443.734375 702.40625 C 434.984375 706.191406 428.152344 710.757812 419.796875 711.894531 C 428.09375 706.816406 436.394531 701.734375 445.707031 696.035156 Z M 454.996094 633.597656 C 470.328125 643.757812 486.320312 648.832031 504.007812 640.582031 C 499.800781 639.769531 495.503906 639.890625 491.257812 639.425781 C 487.007812 638.964844 482.308594 640.457031 478.628906 636.261719 C 487.976562 636.261719 497.324219 636.261719 506.667969 636.261719 C 505.617188 634.410156 504.363281 633.261719 502.960938 633.046875 C 495.925781 631.964844 488.824219 630.246094 481.789062 630.421875 C 472.835938 630.640625 463.925781 632.464844 454.996094 633.597656 Z M 492.386719 690.941406 C 491.917969 690.675781 491.453125 690.410156 490.980469 690.140625 C 489.234375 693.800781 487.589844 697.515625 485.710938 701.101562 C 483.707031 704.910156 481.476562 708.589844 479.347656 712.328125 C 478.765625 712.066406 478.183594 711.808594 477.59375 711.550781 C 478.953125 707.761719 480.199219 703.925781 481.691406 700.191406 C 483.285156 696.207031 485.109375 692.316406 487.140625 687.683594 C 478.042969 694.027344 464.519531 720.859375 463.402344 734.800781 C 477.945312 722.609375 491.476562 710.996094 492.386719 690.941406 Z M 554.140625 650.195312 C 549.5625 659.269531 544.984375 668.351562 540.40625 677.425781 C 539.964844 677.234375 539.53125 677.039062 539.089844 676.84375 C 540.917969 671.015625 542.734375 665.183594 544.558594 659.355469 C 544.222656 659.199219 543.886719 659.042969 543.554688 658.886719 C 536.496094 671.164062 529.433594 683.441406 522.167969 696.085938 C 538.1875 692.34375 554.902344 671.257812 554.140625 650.195312 Z M 489.746094 595.097656 C 497.128906 604.800781 499.808594 618.308594 513.84375 624.25 C 511.273438 619.1875 507.035156 616.679688 506.65625 611.691406 C 511.109375 615.628906 515.5625 619.566406 520.019531 623.503906 C 520.375 623.089844 520.730469 622.675781 521.089844 622.261719 C 514.59375 608.847656 503.644531 600.378906 489.746094 595.097656 Z M 540.695312 603.480469 C 546.085938 609.859375 554.996094 610.136719 559.886719 604.519531 C 562.269531 601.773438 562.917969 598.988281 561.265625 595.65625 C 559.082031 591.265625 553.183594 588.058594 547.679688 588.5 C 548.640625 590.503906 549.574219 592.453125 550.851562 595.125 C 547.761719 595.125 545.484375 595.125 541.425781 595.125 C 544.734375 598.039062 546.792969 599.84375 549.714844 602.414062 C 545.96875 602.855469 543.441406 603.15625 540.695312 603.480469 Z M 534.519531 583.171875 C 529.347656 583.277344 526.25 584.90625 525.417969 587.558594 C 524.394531 590.835938 525.828125 593.425781 528.113281 595.601562 C 529.605469 597.023438 531.175781 598.417969 532.886719 599.550781 C 536.464844 601.902344 538.960938 600.503906 539.628906 596.132812 C 539.855469 594.667969 540.382812 593.011719 541.324219 591.9375 C 544.601562 588.214844 544.472656 586.6875 540 584.789062 C 537.921875 583.910156 535.644531 583.492188 534.519531 583.171875 Z M 534.519531 583.171875 " fill-opacity="1" fill-rule="evenodd"/><g clip-path="url(#07a70ba16d)"><path fill="#38429d" d="M 84.773438 555.808594 C 98.039062 563.117188 111.628906 570.550781 125.171875 578.074219 C 133.457031 582.679688 141.746094 587.28125 149.90625 592.109375 C 180.972656 610.496094 211.910156 629.109375 243.046875 647.386719 C 273.1875 665.082031 303.523438 682.425781 333.730469 700.007812 C 345.132812 706.640625 356.410156 713.484375 367.699219 720.316406 C 369.578125 721.453125 371.191406 723.027344 372.933594 724.402344 C 372.835938 724.941406 372.742188 725.484375 372.652344 726.023438 C 371.089844 726.308594 369.503906 726.921875 367.984375 726.78125 C 366.6875 726.664062 365.429688 725.765625 364.230469 725.078125 C 330.25 705.714844 296.144531 686.558594 262.34375 666.886719 C 229.738281 647.914062 197.546875 628.238281 164.992188 609.179688 C 137.832031 593.28125 110.457031 577.730469 83.035156 562.292969 C 78.882812 559.957031 77.882812 557.097656 77.910156 552.785156 C 78.046875 532.164062 78.109375 511.535156 77.949219 490.914062 C 77.71875 461.714844 76.773438 432.507812 77.035156 403.316406 C 77.449219 355.800781 78.46875 308.292969 79.488281 260.785156 C 79.835938 244.585938 81.042969 228.402344 81.617188 212.203125 C 81.769531 207.90625 83.566406 205.34375 87.335938 203.648438 C 92.824219 201.183594 98.15625 198.378906 103.675781 196.007812 C 106.785156 194.675781 109.066406 192.851562 110.863281 189.902344 C 115.082031 183.003906 119.828125 176.433594 124.054688 169.542969 C 127.5 163.933594 128.878906 158.25 124.261719 152.199219 C 116.632812 142.203125 113.367188 130.890625 115.082031 118.234375 C 115.453125 115.519531 114.796875 112.679688 114.984375 109.921875 C 115.097656 108.285156 115.507812 105.777344 116.53125 105.3125 C 117.832031 104.726562 120.480469 105.226562 121.511719 106.28125 C 125.339844 110.207031 129.765625 114.050781 132.109375 118.835938 C 137.695312 130.226562 139.828125 142.109375 132.761719 154.042969 C 131.5625 156.066406 131.589844 158.8125 130.816406 162.257812 C 134.863281 159.882812 137.761719 158.246094 138.457031 154.308594 C 139.511719 148.332031 143.097656 143.832031 147.230469 139.644531 C 157.027344 129.730469 170.46875 125.957031 181.335938 117.867188 C 181.824219 118.253906 182.316406 118.636719 182.804688 119.023438 C 182.097656 122.046875 181.714844 125.191406 180.632812 128.074219 C 174.570312 144.234375 163.9375 156.058594 146.730469 159.839844 C 140.71875 161.160156 136.0625 163.488281 131.777344 167.398438 C 125.132812 173.476562 119.269531 180.148438 115.234375 189.179688 C 116.59375 188.910156 117.246094 188.9375 117.730469 188.664062 C 134.421875 179.167969 151.144531 169.71875 167.765625 160.097656 C 178.292969 154.007812 185.136719 144.457031 190.777344 135.90625 C 189.183594 130.605469 186.433594 126.386719 187.222656 122.996094 C 188.691406 116.6875 190.03125 109.808594 195.367188 105.050781 C 199.933594 100.972656 205.695312 100.34375 209.996094 103.4375 C 214.226562 106.472656 215.296875 111.3125 213.007812 117.121094 C 212.160156 119.261719 210.878906 121.332031 210.523438 123.550781 C 209.339844 130.894531 204.726562 134.25 197.847656 135.253906 C 197.386719 135.320312 196.910156 135.257812 196.46875 135.359375 C 196.03125 135.453125 195.625 135.679688 195.171875 135.863281 C 193.140625 139.175781 191.089844 142.507812 188.5 146.714844 C 190.417969 146.195312 191.652344 146.121094 192.613281 145.566406 C 204.226562 138.839844 215.84375 132.109375 227.347656 125.195312 C 229.21875 124.074219 230.886719 122.265625 232.078125 120.410156 C 244.429688 101.152344 262.152344 90.800781 284.679688 88.453125 C 289.753906 87.925781 291.40625 88.566406 295.652344 91.03125 C 295.621094 91.480469 295.773438 92.128906 295.535156 92.335938 C 286.125 100.542969 276.9375 109.03125 267.175781 116.789062 C 258.382812 123.777344 247.921875 126.617188 236.667969 126.457031 C 235.101562 126.433594 233.289062 126.449219 232.007812 127.183594 C 225.636719 130.84375 219.398438 134.746094 213.519531 139.859375 C 214.84375 139.625 216.3125 139.695312 217.464844 139.117188 C 233.34375 131.125 248.886719 130.9375 264.019531 140.96875 C 266.332031 142.5 268.671875 144.0625 270.683594 145.949219 C 272.65625 147.808594 274.796875 149.894531 273.148438 153.703125 C 260.269531 153.582031 247.300781 156.835938 234.09375 154.351562 C 227.777344 153.15625 222.003906 150.9375 217.429688 146.445312 C 215.277344 144.332031 213.277344 144.238281 210.605469 144.535156 C 203.332031 145.335938 196.722656 147.582031 190.601562 151.71875 C 185.675781 155.050781 180.324219 157.761719 175.164062 160.75 C 175.316406 161.230469 175.476562 161.714844 175.632812 162.195312 C 177.796875 161.617188 180.238281 161.5 182.074219 160.378906 C 190.71875 155.089844 200.234375 153.511719 209.417969 156.84375 C 221.964844 161.394531 233.925781 167.554688 246.121094 173.066406 C 246.4375 173.210938 246.539062 173.835938 246.730469 174.230469 C 235.453125 187.964844 195.304688 183.144531 180.125 165.929688 C 171.839844 166.359375 163.546875 167.210938 155.90625 171.984375 C 148.902344 176.363281 141.4375 180.011719 134.429688 184.914062 C 135.554688 184.757812 136.851562 184.917969 137.773438 184.394531 C 146.710938 179.335938 156.320312 178.832031 166.089844 180.425781 C 177.589844 182.296875 187.867188 187.738281 199.738281 192.394531 C 197.789062 194.078125 196.71875 195.667969 195.28125 196.132812 C 190.246094 197.769531 185.148438 199.839844 179.957031 200.253906 C 165.695312 201.394531 151.753906 200.117188 139.464844 191.488281 C 138.082031 190.515625 136.039062 189.730469 134.445312 189.941406 C 129.1875 190.632812 123.511719 190.816406 118.867188 193.023438 C 107.402344 198.460938 96.421875 204.910156 86.09375 210.496094 C 80.902344 325.914062 82.03125 440.375 84.773438 555.808594 Z M 260.867188 106.488281 C 261.152344 106.945312 261.429688 107.402344 261.710938 107.855469 C 255.089844 112.488281 248.464844 117.117188 241.84375 121.742188 C 244.730469 122.132812 247.171875 121.617188 249.570312 120.949219 C 265.871094 116.4375 276.222656 103.699219 289.019531 93.109375 C 271.160156 90.925781 248.339844 102.867188 240.925781 117.070312 C 247.679688 113.488281 254.273438 109.988281 260.867188 106.488281 Z M 238.050781 175.644531 C 238.160156 175.046875 238.273438 174.453125 238.378906 173.859375 C 228.636719 169.742188 219.027344 165.289062 209.121094 161.625 C 201.445312 158.777344 198.382812 159.234375 192.183594 161.75 C 200.578125 164.015625 209.230469 164.949219 216.261719 170.351562 C 206.832031 170.210938 198 165.570312 188.4375 166.992188 C 203.710938 177.816406 220.445312 179.457031 238.050781 175.644531 Z M 267.617188 149.089844 C 255.769531 139.050781 243.285156 135.828125 229.054688 139.539062 C 232.011719 140.511719 235.113281 140.816406 238.152344 141.433594 C 241.253906 142.0625 244.296875 142.996094 247.359375 143.796875 C 238.996094 144.925781 230.925781 143.605469 222.738281 144.886719 C 224.851562 146.570312 227.019531 148.089844 229.359375 148.421875 C 236.40625 149.414062 243.507812 150.324219 250.613281 150.53125 C 255.867188 150.683594 261.164062 149.679688 267.617188 149.089844 Z M 177.101562 125.792969 C 161.535156 133.167969 145.742188 142.054688 144.070312 151.808594 C 149.769531 149.207031 153.699219 143.816406 159.519531 141.574219 C 159.875 142.011719 160.222656 142.449219 160.582031 142.882812 C 156.003906 147.179688 151.429688 151.472656 146.621094 155.980469 C 159.492188 153.761719 172.722656 140.738281 177.101562 125.792969 Z M 147.550781 189.1875 C 147.480469 189.984375 147.414062 190.777344 147.34375 191.570312 C 161.546875 196.867188 175.90625 199.445312 191.589844 193.6875 C 177.613281 185.625 159.75 181.730469 153.425781 185.082031 C 159.964844 187.222656 167.207031 187.484375 172.683594 192.714844 C 164.304688 191.539062 155.925781 190.363281 147.550781 189.1875 Z M 120.890625 111.523438 C 116.96875 121.847656 119.207031 140.453125 127.242188 145.707031 C 126.089844 140.191406 125.0625 135.253906 123.800781 129.226562 C 125.285156 130.570312 125.980469 130.921875 126.246094 131.484375 C 128.078125 135.355469 129.824219 139.269531 131.660156 143.3125 C 134.117188 132.800781 129.878906 120.417969 120.890625 111.523438 Z M 205.167969 119.769531 C 209.621094 117.6875 211.175781 114.441406 209.886719 110.519531 C 208.789062 107.15625 205.71875 105.289062 202.460938 105.996094 C 197.800781 107.007812 194.699219 111.46875 195.394531 116.714844 C 199.847656 113.957031 203.230469 115.152344 205.167969 119.769531 Z M 200.089844 117.421875 C 197.449219 122.304688 194.734375 122.449219 191.832031 120.042969 C 190.234375 126.589844 190.652344 128.476562 193.820312 130.308594 C 197.054688 132.1875 201.507812 131.472656 204.476562 128.285156 C 205.59375 127.082031 206.148438 125.351562 207.253906 123.320312 C 204.691406 123.519531 203.023438 123.644531 201.417969 123.769531 C 201.039062 121.976562 200.773438 120.683594 200.089844 117.421875 Z M 200.089844 117.421875 " fill-opacity="1" fill-rule="evenodd"/></g><g fill="#38429d" fill-opacity="1"><g transform="translate(287.255907, 501.524716)"><g><path d="M 171.375 -30.796875 C 165.082031 -19.867188 156.472656 -11.34375 145.546875 -5.21875 C 134.617188 0.90625 123.191406 3.96875 111.265625 3.96875 C 91.398438 3.96875 74.925781 -2.15625 61.84375 -14.40625 C 48.757812 -26.65625 42.21875 -45.035156 42.21875 -69.546875 L 43.71875 -188.265625 L 8.9375 -188.265625 L 8.9375 -198.703125 L 73.015625 -256.8125 L 82.453125 -256.8125 L 81.46875 -199.6875 L 80.96875 -77.5 C 80.96875 -60.269531 84.691406 -47.515625 92.140625 -39.234375 C 99.597656 -30.960938 110.113281 -26.828125 123.6875 -26.828125 C 131.300781 -26.828125 138.335938 -28.398438 144.796875 -31.546875 C 151.253906 -34.691406 157.132812 -38.582031 162.4375 -43.21875 Z M 63.578125 -188.265625 L 63.578125 -213.109375 L 156.46875 -213.109375 L 156.46875 -188.265625 Z M 63.578125 -188.265625 "/></g></g></g></svg>