<svg xmlns="http://www.w3.org/2000/svg" xmlns:xlink="http://www.w3.org/1999/xlink" width="1024" zoomAndPan="magnify" viewBox="0 0 768 767.999994" height="1024" preserveAspectRatio="xMidYMid meet" version="1.0"><defs><clipPath id="a1304b1841"><path d="M 0 341.160156 L 768 341.160156 L 768 368.910156 L 0 368.910156 Z M 0 341.160156 " clip-rule="nonzero"/></clipPath><clipPath id="eea03f5764"><path d="M 0 367.839844 L 768 367.839844 L 768 395.589844 L 0 395.589844 Z M 0 367.839844 " clip-rule="nonzero"/></clipPath><clipPath id="6a47e49286"><path d="M 0 394.660156 L 768 394.660156 L 768 422.410156 L 0 422.410156 Z M 0 394.660156 " clip-rule="nonzero"/></clipPath></defs><g clip-path="url(#a1304b1841)"><path fill="#38429d" d="M 767.90625 341.160156 L 767.90625 368.910156 L 0.09375 368.910156 L 0.09375 341.160156 Z M 767.90625 341.160156 " fill-opacity="1" fill-rule="nonzero"/></g><g clip-path="url(#eea03f5764)"><path fill="#38429d" d="M 767.90625 367.839844 L 767.90625 395.589844 L 0.09375 395.589844 L 0.09375 367.839844 Z M 767.90625 367.839844 " fill-opacity="1" fill-rule="nonzero"/></g><g clip-path="url(#6a47e49286)"><path fill="#38429d" d="M 768.179688 394.660156 L 768.179688 422.410156 L -16.941406 422.410156 L -16.941406 394.660156 Z M 768.179688 394.660156 " fill-opacity="1" fill-rule="nonzero"/></g></svg>