<svg width="1024" height="1024" version="1.0" viewBox="0 0 768 768" xmlns="http://www.w3.org/2000/svg" zoomAndPan="magnify">
<defs>
<clipPath id="a">
    <path d="m83.496 32.715h599.68v697.81h-599.68z"/>
</clipPath>
<clipPath id="c">
    <path d="m383.34 32.715 299.84 174.45v348.91l-299.84 174.45-299.84-174.45v-348.91l299.84-174.45"/>
</clipPath>
<clipPath id="b">
    <path d="m76.797 88h296.2v639h-296.2z"/>
</clipPath>
</defs>
<g clip-path="url(#a)">
<g clip-path="url(#c)">
<path d="m83.496 32.715h599.68v697.81h-599.68z" fill="#fffbf5"/>
</g>
</g>
<path d="m298.95 78.426c1.5938-1.4258 3.0352-3.1016 4.8203-4.2383 5.8555-3.7148 11.871-7.1719 17.754-10.844 18.645-11.648 37.34-23.211 55.82-35.109 5.1953-3.3477 9.6445-3.2852 14.785-0.21875 24.84 14.82 49.832 29.391 74.664 44.227 41.723 24.934 83.277 50.148 125.07 74.961 30.645 18.195 61.531 35.977 92.383 53.809 3.6055 2.0859 5.5625 4.6641 5.5312 8.8125-0.09375 12.277-0.09375 24.547-0.25391 36.82-0.089844 6.9492-0.54688 13.895-0.62891 20.844-0.51172 42.871-1.1758 85.742-1.3281 128.61-0.074218 19.684 1.2539 39.375 1.3164 59.059 0.089843 28.969-0.375 57.941-0.60547 86.91-0.007812 0.92578-0.20312 1.9102 0.027344 2.7734 1.8438 6.7734-1.2266 10.434-7.082 13.629-9.3203 5.0898-18.211 11.008-27.145 16.797-2.6719 1.7344-5.0352 4.0547-7.2617 6.375-16.012 16.684-16.121 16.672-21.598 39.035-2.6016 10.633-5.5 21.059-11.496 30.371-7.5156 11.684-16.496 21.789-29.402 27.699-3.1211 1.4297-6.2891 3-10.262 1.3008 0-1.0781-0.37891-2.3477 0.054688-3.2031 8.4844-16.703 16.672-33.586 25.781-49.945 5.0742-9.1211 12.898-16.238 20.781-23.16 5.6758-4.9844 10.727-10.676 16.059-16.055-0.26953-0.37109-0.53906-0.75-0.8125-1.125-1.1914 0.39453-2.4844 0.60156-3.5547 1.2148-18.258 10.465-36.723 20.598-54.617 31.648-9.3242 5.7539-15.055 14.855-16.52 26.027-1.8281 13.961-5.1328 27.285-14.086 38.656-6.3398 8.0508-14.07 14.055-23.906 17.051-2.2227 0.67969-4.7188 0.46875-8.4609 0.78516 1.5312-3.3594 2.3359-5.4414 3.3945-7.3828 6.1094-11.176 12.172-22.383 18.469-33.453 5.2852-9.293 11.023-18.207 20.453-24.098 2.1953-1.3711 3.5234-4.1211 4.6367-7.1641-1.0977 0.35547-2.3359 0.48438-3.2656 1.0898-16.688 10.836-33.59 21.375-49.887 32.777-7.6602 5.3555-12.844 12.906-12.039 23.332 1.3711 17.816-7.5352 31.164-19.922 42.438-5.0625 4.6094-11.32 7.9141-17.137 11.656-1.2383 0.80078-2.9023 0.94141-5.1641 1.625 0.29297-1.9805 0.25781-3.2969 0.69922-4.4297 3.3633-8.6172 6.4766-17.359 10.359-25.742 3.4766-7.5273 7.2852-15.023 11.992-21.812 2.9141-4.2031 7.457-7.5391 11.855-10.348 3.1758-2.0234 4.9297-4.4492 5.5547-8.6602-3.1055 1.7656-6.2188 3.5156-9.3125 5.3008-8.8086 5.0742-17.562 10.262-26.453 15.195-3.3242 1.8398-5.918 3.9727-7.8711 7.4023-6.9844 12.242-17.844 19.973-30.926 24.398-10.93 3.6992-22.121 6.6211-33.234 9.7891-1.1914 0.34375-2.5625 0.050781-5.1562 0.050781 1.6172-3.3359 2.5586-5.8438 3.9492-8.0781 10.73-17.242 26.496-27.438 45.891-32.316 3.7812-0.95312 7.7969-1.7969 11.625-1.5312 6.3477 0.44141 11.602-1.543 16.871-4.7617 8.2773-5.0547 16.82-9.668 25.031-15.703-1.3672-0.14062-2.7383-0.41797-4.1016-0.40234-6.4688 0.074218-12.945 0.13672-19.41 0.42578-1.707 0.074219-3.4141 0.85156-5.0586 1.4805-1.0625 0.40625-1.9492 1.2656-3.0117 1.6797-4.9219 1.9336-10.316-0.046875-12.461-4.4961-2.0078-4.1719-0.28516-9.1758 3.8711-11.238 4.9648-2.4688 10.699-0.95312 13.324 3.6211 0.67578 1.1758 1.0078 2.5508 1.6367 4.1875 5.8047 0 11.594 0.59766 17.215-0.12109 13.348-1.6992 26.34-4.5391 37.562-12.941 6.6484-4.9805 13.996-9.0273 20.996-13.539 1.2773-0.82422 2.418-1.8633 4.4297-3.4336-8.2148 0.93359-15.328 1.6289-22.402 2.6211-1.7305 0.24609-3.3633 1.3789-4.9492 2.2656-20.922 11.664-41.242 8.7539-61.398-4.6758-1.7227-1.1484-2.7383-3.3516-4.668-5.8047 3.3516-0.61719 5.5742-1.082 7.8125-1.4297 5.9297-0.92188 11.871-1.7852 17.809-2.6797 9.4844-1.4336 18.938-1.5195 28.238 1.0469 3.0859 0.85547 6.6328 1.7109 8.8203 3.7891 4.4648 4.2461 9.25 4.5156 14.664 3.2539 1.2891-0.30078 2.6211-0.37891 4.3008-1.8008-1.9922-0.75781-3.918-1.8359-5.9727-2.2188-12.828-2.375-22.633-8.7344-28.832-20.555-2.7812-5.3086-6.3672-10.191-9.5312-15.309-1.0703-1.7266-1.9609-3.5664-2.7734-5.0664 1.5078-3.0117 3.6836-2.7734 5.6523-2.0234 17.309 6.5859 31.516 16.793 38.094 34.93 1.5703 4.3398 4.0117 6.3867 8.0078 7.5586 5.4883 1.6094 11.062 2.0898 16.316-0.32422 12.148-5.5664 23.117-13.113 35.121-21.027-7.6172-0.65234-13.93-1.2617-20.25-1.6484-0.96484-0.058593-2.043 0.85156-2.9766 1.457-7.5312 4.8984-16.086 4.5586-23.156-0.80859-1.9727-1.5-4.3047-2.5195-6.3203-3.9727-2.793-2.0156-5.75-3.9453-8.0938-6.4219-3.8047-4.0195-4.5234-9.3555-2.2031-13.473 2.6992-4.793 7.2852-6.082 12.379-6.2227 0.67578-0.015625 1.4062 0.11328 2.0352 0.36719 7.4414 2.9844 14.969 5.7812 22.262 9.0938 5.0195 2.2812 7.6406 6.5586 7.5938 12.258-0.011719 1.1172 0.12891 2.2383 0.25 4.0586 9.7422 0.97266 18.938-0.58984 28.051-3.3516 15.652-4.7344 29.359-13.508 43.723-20.918 3.3984-1.7578 6.5898-3.9141 9.6602-6.293-5.457 0.042969-10.246 1.1484-14.992 4.1875-14.637 9.3594-30.672 9.2266-46.895 5.1875-7.8516-1.9531-15.531-4.5781-23.352-6.668-3.6953-0.99219-7.5352-1.4453-11.258-2.1328-0.22266-3.7227 2.4062-4.2578 4.2695-5.3125 8.625-4.8555 18.133-6.9375 27.77-8.3047 14.832-2.1016 29.547-1.6367 43.875 3.3242 1.5273 0.52734 3.2461 0.87891 4.4844 1.8242 5.8477 4.4727 12.215 3.1484 18.551 1.875 11.543-2.3203 21.707-7.6523 31.305-14.355 2.7227-1.8984 2.2891-4.2695 2.2695-6.7344-0.097656-14.832-0.30859-29.668-0.34375-44.496-0.035156-13.676 0.26563-27.352 0.12891-41.023-0.15234-14.824-0.78516-29.645-0.95703-44.473-0.1875-15.988-0.23438-31.98-0.09375-47.969 0.31641-35.223 0.69922-70.445 1.2305-105.66 0.23047-14.82 0.70703-29.645 1.4375-44.445 0.28125-5.7812-1.6719-8.9375-6.8867-11.922-18.289-10.445-36.027-21.84-54.176-32.516-23.332-13.727-46.957-26.941-70.277-40.684-19.93-11.734-39.617-23.887-59.395-35.887-14.629-8.8828-29.254-17.789-43.836-26.75-20.105-12.352-40.238-24.66-60.203-37.242-3.6719-2.3164-6.2539-2.2969-9.8945 0.039063-17.715 11.375-35.555 22.566-53.5 33.562-6.8945 4.2266-14.168 7.8398-21.348 11.578-1.6641 0.86328-3.6562 1.0938-5.5039 1.6133-0.30078-0.52734-0.60547-1.0664-0.90625-1.6055zm280.52 597.89c26.594-13.016 37.855-34.836 42.105-61.492-3.9062 5.8203-7.3359 11.941-10.691 18.102-3.3906 6.2031-6.3359 12.695-11.652 17.648 3.6836-12.715 10.82-23.809 16.172-35.711-9.2734 9.0547-16.23 19.594-21.629 31.211-4.4805 9.6172-9.0742 19.184-14.305 30.242zm-16.961-104.52c8.4336 2.3711 16.824 4.9375 25.324 7.0586 10.195 2.5469 20.52 3.2461 30.836 0.53125 1.3438-0.35937 2.543-1.2891 3.8086-1.9531-11.02-0.60547-21.684-1.0039-31.98-4.7383 12.957-0.23438 25.844-0.20312 38.508-3.1602-22.371-8.5352-44.461-6.5234-66.496 2.2617zm-116.81 124.24c-19.453-1.2109-47.266 15.422-56.516 32.441 6.6562-1.6641 13.32-3.3086 19.973-5.0117 8.3359-2.1289 16.191-5.4258 23.508-9.9727 4.0742-2.5312 7.6523-5.5664 11.062-11.086-8.75 3.7852-15.582 8.3516-23.938 9.4883 8.2969-5.0781 16.598-10.16 25.91-15.859zm9.2891-62.438c15.332 10.16 31.324 15.234 49.012 6.9844-4.207-0.8125-8.5039-0.69141-12.75-1.1562-4.25-0.46094-8.9492 1.0312-12.629-3.1641h28.039c-1.0508-1.8516-2.3047-3-3.707-3.2148-7.0352-1.082-14.137-2.8008-21.172-2.625-8.9531 0.21875-17.863 2.043-26.793 3.1758zm37.391 57.344c-0.46875-0.26562-0.93359-0.53125-1.4062-0.80078-1.7461 3.6602-3.3906 7.375-5.2695 10.961-2.0039 3.8086-4.2344 7.4883-6.3633 11.227-0.58203-0.26172-1.1641-0.51953-1.7539-0.77734 1.3594-3.7891 2.6055-7.625 4.0977-11.359 1.5938-3.9844 3.418-7.875 5.4492-12.508-9.0977 6.3438-22.621 33.176-23.738 47.117 14.543-12.191 28.074-23.805 28.984-43.859zm61.754-40.746c-4.5781 9.0742-9.1562 18.156-13.734 27.23-0.44141-0.19141-0.875-0.38672-1.3164-0.58203 1.8281-5.8281 3.6445-11.66 5.4688-17.488-0.33594-0.15625-0.67188-0.3125-1.0039-0.46875-7.0586 12.277-14.121 24.555-21.387 37.199 16.02-3.7422 32.734-24.828 31.973-45.891zm-64.395-55.098c7.3828 9.7031 10.062 23.211 24.098 29.152-2.5703-5.0625-6.8086-7.5703-7.1875-12.559 4.4531 3.9375 8.9062 7.875 13.363 11.812 0.35547-0.41406 0.71094-0.82812 1.0703-1.2422-6.4961-13.414-17.445-21.883-31.344-27.164zm50.949 8.3828c5.3906 6.3789 14.301 6.6562 19.191 1.0391 2.3828-2.7461 3.0312-5.5312 1.3789-8.8633-2.1836-4.3906-8.082-7.5977-13.586-7.1562 0.96094 2.0039 1.8945 3.9531 3.1719 6.625h-9.4258c3.3086 2.9141 5.3672 4.7188 8.2891 7.2891-3.7461 0.44141-6.2734 0.74219-9.0195 1.0664zm-6.1758-20.309c-5.1719 0.10547-8.2695 1.7344-9.1016 4.3867-1.0234 3.2773 0.41016 5.8672 2.6953 8.043 1.4922 1.4219 3.0625 2.8164 4.7734 3.9492 3.5781 2.3516 6.0742 0.95312 6.7422-3.418 0.22656-1.4648 0.75391-3.1211 1.6953-4.1953 3.2773-3.7227 3.1484-5.25-1.3242-7.1484-2.0781-0.87891-4.3555-1.2969-5.4805-1.6172z" fill="#38429d" fill-rule="evenodd"/>
<g clip-path="url(#b)">
<path d="m84.773 555.81c13.266 7.3086 26.855 14.742 40.398 22.266 8.2852 4.6055 16.574 9.207 24.734 14.035 31.066 18.387 62.004 37 93.141 55.277 30.141 17.695 60.477 35.039 90.684 52.621 11.402 6.6328 22.68 13.477 33.969 20.309 1.8789 1.1367 3.4922 2.7109 5.2344 4.0859-0.097656 0.53906-0.19141 1.082-0.28125 1.6211-1.5625 0.28516-3.1484 0.89844-4.668 0.75781-1.2969-0.11719-2.5547-1.0156-3.7539-1.7031-33.98-19.363-68.086-38.52-101.89-58.191-32.605-18.973-64.797-38.648-97.352-57.707-27.16-15.898-54.535-31.449-81.957-46.887-4.1523-2.3359-5.1523-5.1953-5.125-9.5078 0.13672-20.621 0.19922-41.25 0.039063-61.871-0.23047-29.199-1.1758-58.406-0.91406-87.598 0.41406-47.516 1.4336-95.023 2.4531-142.53 0.34766-16.199 1.5547-32.383 2.1289-48.582 0.15234-4.2969 1.9492-6.8594 5.7188-8.5547 5.4883-2.4648 10.82-5.2695 16.34-7.6406 3.1094-1.332 5.3906-3.1562 7.1875-6.1055 4.2188-6.8984 8.9648-13.469 13.191-20.359 3.4453-5.6094 4.8242-11.293 0.20703-17.344-7.6289-9.9961-10.895-21.309-9.1797-33.965 0.37109-2.7148-0.28516-5.5547-0.097656-8.3125 0.11328-1.6367 0.52344-4.1445 1.5469-4.6094 1.3008-0.58594 3.9492-0.085938 4.9805 0.96875 3.8281 3.9258 8.2539 7.7695 10.598 12.555 5.5859 11.391 7.7188 23.273 0.65234 35.207-1.1992 2.0234-1.1719 4.7695-1.9453 8.2148 4.0469-2.375 6.9453-4.0117 7.6406-7.9492 1.0547-5.9766 4.6406-10.477 8.7734-14.664 9.7969-9.9141 23.238-13.688 34.105-21.777 0.48828 0.38672 0.98047 0.76953 1.4688 1.1562-0.70703 3.0234-1.0898 6.168-2.1719 9.0508-6.0625 16.16-16.695 27.984-33.902 31.766-6.0117 1.3203-10.668 3.6484-14.953 7.5586-6.6445 6.0781-12.508 12.75-16.543 21.781 1.3594-0.26953 2.0117-0.24219 2.4961-0.51563 16.691-9.4961 33.414-18.945 50.035-28.566 10.527-6.0898 17.371-15.641 23.012-24.191-1.5938-5.3008-4.3438-9.5195-3.5547-12.91 1.4688-6.3086 2.8086-13.188 8.1445-17.945 4.5664-4.0781 10.328-4.707 14.629-1.6133 4.2305 3.0352 5.3008 7.875 3.0117 13.684-0.84766 2.1406-2.1289 4.2109-2.4844 6.4297-1.1836 7.3438-5.7969 10.699-12.676 11.703-0.46094 0.066406-0.9375 0.003906-1.3789 0.10547-0.4375 0.09375-0.84375 0.32031-1.2969 0.50391-2.0312 3.3125-4.082 6.6445-6.6719 10.852 1.918-0.51953 3.1523-0.59375 4.1133-1.1484 11.613-6.7266 23.23-13.457 34.734-20.371 1.8711-1.1211 3.5391-2.9297 4.7305-4.7852 12.352-19.258 30.074-29.609 52.602-31.957 5.0742-0.52734 6.7266 0.11328 10.973 2.5781-0.03125 0.44922 0.12109 1.0977-0.11719 1.3047-9.4102 8.207-18.598 16.695-28.359 24.453-8.793 6.9883-19.254 9.8281-30.508 9.668-1.5664-0.023437-3.3789-0.007812-4.6602 0.72656-6.3711 3.6602-12.609 7.5625-18.488 12.676 1.3242-0.23438 2.793-0.16406 3.9453-0.74219 15.879-7.9922 31.422-8.1797 46.555 1.8516 2.3125 1.5312 4.6523 3.0938 6.6641 4.9805 1.9727 1.8594 4.1133 3.9453 2.4648 7.7539-12.879-0.12109-25.848 3.1328-39.055 0.64844-6.3164-1.1953-12.09-3.4141-16.664-7.9062-2.1523-2.1133-4.1523-2.207-6.8242-1.9102-7.2734 0.80078-13.883 3.0469-20.004 7.1836-4.9258 3.332-10.277 6.043-15.438 9.0312 0.15234 0.48047 0.3125 0.96484 0.46875 1.4453 2.1641-0.57812 4.6055-0.69531 6.4414-1.8164 8.6445-5.2891 18.16-6.8672 27.344-3.5352 12.547 4.5508 24.508 10.711 36.703 16.223 0.31641 0.14453 0.41797 0.76953 0.60938 1.1641-11.277 13.734-51.426 8.9141-66.605-8.3008-8.2852 0.42969-16.578 1.2812-24.219 6.0547-7.0039 4.3789-14.469 8.0273-21.477 12.93 1.125-0.15625 2.4219 0.003907 3.3438-0.51953 8.9375-5.0586 18.547-5.5625 28.316-3.9688 11.5 1.8711 21.777 7.3125 33.648 11.969-1.9492 1.6836-3.0195 3.2734-4.457 3.7383-5.0352 1.6367-10.133 3.707-15.324 4.1211-14.262 1.1406-28.203-0.13672-40.492-8.7656-1.3828-0.97266-3.4258-1.7578-5.0195-1.5469-5.2578 0.69141-10.934 0.875-15.578 3.082-11.465 5.4375-22.445 11.887-32.773 17.473-5.1914 115.42-4.0625 229.88-1.3203 345.31zm176.09-449.32c0.28516 0.45703 0.5625 0.91406 0.84375 1.3672-6.6211 4.6328-13.246 9.2617-19.867 13.887 2.8867 0.39062 5.3281-0.125 7.7266-0.79297 16.301-4.5117 26.652-17.25 39.449-27.84-17.859-2.1836-40.68 9.7578-48.094 23.961 6.7539-3.582 13.348-7.082 19.941-10.582zm-22.816 69.156c0.10938-0.59766 0.22266-1.1914 0.32812-1.7852-9.7422-4.1172-19.352-8.5703-29.258-12.234-7.6758-2.8477-10.738-2.3906-16.938 0.125 8.3945 2.2656 17.047 3.1992 24.078 8.6016-9.4297-0.14062-18.262-4.7812-27.824-3.3594 15.273 10.824 32.008 12.465 49.613 8.6523zm29.566-26.555c-11.848-10.039-24.332-13.262-38.562-9.5508 2.957 0.97266 6.0586 1.2773 9.0977 1.8945 3.1016 0.62891 6.1445 1.5625 9.207 2.3633-8.3633 1.1289-16.434-0.19141-24.621 1.0898 2.1133 1.6836 4.2812 3.2031 6.6211 3.5352 7.0469 0.99219 14.148 1.9023 21.254 2.1094 5.2539 0.15234 10.551-0.85156 17.004-1.4414zm-90.516-23.297c-15.566 7.375-31.359 16.262-33.031 26.016 5.6992-2.6016 9.6289-7.9922 15.449-10.234 0.35547 0.4375 0.70312 0.875 1.0625 1.3086-4.5781 4.2969-9.1523 8.5898-13.961 13.098 12.871-2.2188 26.102-15.242 30.48-30.188zm-29.551 63.395c-0.070312 0.79688-0.13672 1.5898-0.20703 2.3828 14.203 5.2969 28.562 7.875 44.246 2.1172-13.977-8.0625-31.84-11.957-38.164-8.6055 6.5391 2.1406 13.781 2.4023 19.258 7.6328-8.3789-1.1758-16.758-2.3516-25.133-3.5273zm-26.66-77.664c-3.9219 10.324-1.6836 28.93 6.3516 34.184-1.1523-5.5156-2.1797-10.453-3.4414-16.48 1.4844 1.3438 2.1797 1.6953 2.4453 2.2578 1.832 3.8711 3.5781 7.7852 5.4141 11.828 2.457-10.512-1.7812-22.895-10.77-31.789zm84.277 8.2461c4.4531-2.082 6.0078-5.3281 4.7188-9.25-1.0977-3.3633-4.168-5.2305-7.4258-4.5234-4.6602 1.0117-7.7617 5.4727-7.0664 10.719 4.4531-2.7578 7.8359-1.5625 9.7734 3.0547zm-5.0781-2.3477c-2.6406 4.8828-5.3555 5.0273-8.2578 2.6211-1.5977 6.5469-1.1797 8.4336 1.9883 10.266 3.2344 1.8789 7.6875 1.1641 10.656-2.0234 1.1172-1.2031 1.6719-2.9336 2.7773-4.9648-2.5625 0.19922-4.2305 0.32422-5.8359 0.44922-0.37891-1.793-0.64453-3.0859-1.3281-6.3477z" fill="#38429d" fill-rule="evenodd"/>
</g>
<g fill="#38429d">
<g transform="translate(287.26 501.52)">
<path d="m171.38-30.797c-6.293 10.93-14.902 19.453-25.828 25.578-10.93 6.125-22.355 9.1875-34.281 9.1875-19.867 0-36.34-6.125-49.422-18.375-13.086-12.25-19.625-30.629-19.625-55.141l1.5-118.72h-34.781v-10.438l64.078-58.109h9.4375l-0.98438 57.125-0.5 122.19c0 17.23 3.7227 29.984 11.172 38.266 7.457 8.2734 17.973 12.406 31.547 12.406 7.6133 0 14.648-1.5703 21.109-4.7188 6.457-3.1445 12.336-7.0352 17.641-11.672zm-107.8-157.47v-24.844h92.891v24.844z"/>
</g>
</g>
</svg>
